<?xml version="1.0" standalone="no"?>
<!DOCTYPE svg PUBLIC "-//W3C//DTD SVG 20010904//EN"
 "http://www.w3.org/TR/2001/REC-SVG-20010904/DTD/svg10.dtd">
<svg version="1.0" xmlns="http://www.w3.org/2000/svg"
 width="700.000000pt" height="700.000000pt" viewBox="0 0 700.000000 700.000000"
 preserveAspectRatio="xMidYMid meet">
<metadata>
Created by potrace 1.14, written by Peter Selinger 2001-2017
</metadata>
<g transform="translate(0.000000,700.000000) scale(0.100000,-0.100000)"
fill="#000000" stroke="none">
<path d="M3388 6274 c-131 -31 -102 -5 -1076 -977 -502 -502 -920 -924 -928
-939 -8 -15 -14 -47 -14 -72 0 -80 84 -147 163 -131 26 6 179 153 769 743 406
405 739 734 741 732 3 -3 16 -27 30 -55 79 -155 246 -255 427 -255 183 0 350
101 428 258 14 28 29 52 32 52 3 0 500 -495 1105 -1100 l1100 -1100 -3030 0
c-3006 0 -3030 0 -3063 -20 -18 -11 -41 -34 -52 -52 -20 -33 -20 -50 -18
-1295 3 -1258 3 -1262 24 -1290 11 -15 36 -36 55 -45 32 -17 216 -18 3419 -18
3203 0 3387 1 3419 18 19 9 44 30 55 45 21 28 21 32 24 1290 2 1245 2 1262
-18 1295 -40 65 -65 72 -255 72 l-170 0 -1390 1389 c-1129 1128 -1400 1394
-1442 1415 -107 53 -225 67 -335 40z m189 -286 c42 -12 111 -90 119 -135 11
-58 -2 -122 -32 -166 -110 -155 -348 -88 -362 102 -5 69 12 111 63 161 54 53
124 65 212 38z m3143 -3918 l0 -1080 -3220 0 -3220 0 0 1080 0 1080 3220 0
3220 0 0 -1080z"/>
<path d="M680 2802 c-19 -9 -43 -33 -55 -52 -20 -34 -20 -50 -20 -680 0 -625
1 -646 20 -678 11 -18 39 -42 63 -53 58 -29 104 -19 154 31 l38 38 0 261 0
261 245 0 245 0 0 -252 c0 -233 2 -256 20 -285 39 -65 105 -85 175 -54 36 16
50 29 65 63 19 41 20 70 20 673 0 702 3 674 -69 722 -62 41 -152 22 -191 -42
-19 -30 -20 -49 -20 -289 l0 -256 -242 2 -243 3 -5 260 c-6 290 -7 297 -73
329 -45 21 -83 20 -127 -2z"/>
<path d="M2396 2804 c-272 -61 -491 -269 -567 -540 -28 -99 -31 -264 -5 -369
50 -209 204 -398 401 -494 113 -55 198 -74 330 -75 193 0 361 66 500 196 173
161 255 364 242 593 -18 316 -225 578 -532 675 -93 29 -271 36 -369 14z m267
-279 c87 -23 155 -61 218 -124 114 -114 160 -268 128 -423 -50 -239 -282 -401
-525 -367 -198 28 -365 195 -393 394 -46 326 258 602 572 520z"/>
<path d="M3352 2800 c-94 -57 -94 -183 0 -240 29 -17 51 -20 166 -20 l132 0 0
-553 c0 -628 -3 -601 81 -645 69 -36 139 -16 179 51 19 31 20 55 20 590 l0
557 131 0 c100 0 139 4 165 16 98 47 99 201 1 247 -31 15 -82 17 -439 17 -384
0 -404 -1 -436 -20z"/>
<path d="M4510 2802 c-19 -9 -43 -33 -55 -52 -20 -34 -20 -50 -20 -682 0 -637
0 -647 21 -674 11 -15 33 -37 48 -48 26 -20 41 -21 417 -24 263 -2 403 1 431
8 52 15 95 57 103 103 10 51 0 82 -40 125 l-33 37 -331 3 -331 3 0 164 0 165
213 0 c188 0 216 2 247 19 45 24 73 72 73 126 0 51 -21 88 -66 115 -29 18 -52
20 -249 20 l-218 0 0 165 0 165 316 0 c350 0 368 3 405 64 25 41 25 112 -1
154 -37 61 -47 62 -492 62 -364 0 -406 -2 -438 -18z"/>
<path d="M5685 2801 c-16 -10 -39 -28 -50 -41 -20 -22 -20 -38 -23 -679 -2
-636 -2 -657 17 -688 42 -68 40 -68 396 -68 292 0 323 2 348 18 89 58 86 190
-4 239 -30 16 -60 18 -256 18 l-223 0 0 553 c0 506 -2 555 -18 587 -36 72
-124 101 -187 61z"/>
<path d="M1055 4031 c-16 -10 -69 -58 -116 -107 -90 -93 -107 -126 -94 -185 9
-41 65 -95 107 -103 60 -11 97 9 191 101 100 99 117 126 117 180 0 103 -118
168 -205 114z"/>
</g>
</svg>
